# xmcd
#
# Track frame offsets:
#	150
#	12304
#	34092
#	52518
#	66770
#	90645
#	116331
#	140026
#	155969
#	167492
#	179449
#	190204
#	213804
#	229957
#	246321
#	264844
#	279904
#	302832
#
# Disc length: 4271
#
# Revision: 2
# Processed by: cddbd v1.5.1PL0 Copyright (c) Steve Scherf et al.
# Submitted via: CDValet v3.31 - Copyright (c) 1997 Greg Leichner
# Normalized: r1:DSETVAR1
#
DISCID=f310ad12
DTITLE=Various Artist - Steppin (R&B)
DYEAR=1900
DGENRE=
TTITLE0=Billy Larkin - Ain't That A Groove
TTITLE1=Latimore - Bad Risk
TTITLE2=Bobby Bland - Here We Go again
TTITLE3=Millie Jackson - Ask Me What You Want
TTITLE4=J. Balckfoot - Loosers Weepers
TTITLE5=Chuck brown - Never Gonna Give You Up
TTITLE6=Mo Stanley - Thank You
TTITLE7=Johnny Guitar Watson - I Don't Want To Be A Long ranger
TTITLE8=Patrice Valentine - Ernestine
TTITLE9=Otis Leaville - Love Uprising
TTITLE10=O.V. Wright - Ace Of Spades
TTITLE11=Betty Wright - No Pain, No Gain
TTITLE12=William Bell - Tryin' to Love Two
TTITLE13=Otis Clay - All Because Of Your Love
TTITLE14=Lamont Dozier - Why Can't We Be Lovers
TTITLE15=Garland Green - Plain And Simple
TTITLE16=J. Blackfoot - Taxi
TTITLE17=Solomon Burke - Today Is Your Birthday
EXTD=
EXTT0=
EXTT1=
EXTT2=
EXTT3=
EXTT4=
EXTT5=
EXTT6=
EXTT7=
EXTT8=
EXTT9=
EXTT10=
EXTT11=
EXTT12=
EXTT13=
EXTT14=
EXTT15=
EXTT16=
EXTT17=
PLAYORDER=
